<svg width="110" height="82" viewBox="0 0 110 82" fill="none" xmlns="http://www.w3.org/2000/svg">
<path d="M103.125 13.6667H52.3746L47.3997 3.77798C46.8286 2.64286 45.9508 1.6882 44.8646 1.02093C43.7785 0.353671 42.5269 0.000159871 41.25 0L6.875 0C5.05164 0 3.30295 0.719939 2.01364 2.00144C0.724328 3.28294 0 5.02102 0 6.83333L0 75.1667C0 76.979 0.724328 78.7171 2.01364 79.9986C3.30295 81.2801 5.05164 82 6.875 82H103.125C104.948 82 106.697 81.2801 107.986 79.9986C109.276 78.7171 110 76.979 110 75.1667V20.5C110 18.6877 109.276 16.9496 107.986 15.6681C106.697 14.3866 104.948 13.6667 103.125 13.6667Z" fill="url(#paint0_linear_0_1)"/>
<path d="M55 38.8V48M55 48V57.2M55 48H64.2M55 48H45.8" stroke="#A5B4FC" stroke-width="2" stroke-linecap="round"/>
<path d="M55 71C67.7025 71 78 60.7025 78 48C78 35.2975 67.7025 25 55 25C42.2975 25 32 35.2975 32 48C32 60.7025 42.2975 71 55 71Z" stroke="#A5B4FC" stroke-width="2"/>
<defs>
<linearGradient id="paint0_linear_0_1" x1="55" y1="0" x2="55" y2="82" gradientUnits="userSpaceOnUse">
<stop stop-color="#FCFDFF"/>
<stop offset="1" stop-color="#F3F4F6" stop-opacity="0"/>
</linearGradient>
</defs>
</svg>
