<svg width="62" height="78" viewBox="0 0 62 78" fill="none" xmlns="http://www.w3.org/2000/svg">
<path d="M61.1722 17.5547C61.7006 18.0234 62 18.6562 62 19.3203V67.5C62 68.8828 60.7406 70 59.1818 70H2.81818C1.25937 70 0 68.8828 0 67.5V2.5C0 1.11719 1.25937 0 2.81818 0H40.2207C40.9693 0 41.6915 0.265625 42.2199 0.734375L61.1722 17.5547ZM55.5006 20.4688L38.9261 5.76562V20.4688H55.5006Z" fill="url(#paint0_linear_0_1)"/>
<path d="M32 44.8V54M32 54V63.2M32 54H41.2M32 54H22.8" stroke="#A5B4FC" stroke-width="2" stroke-linecap="round"/>
<path d="M32 77C44.7025 77 55 66.7025 55 54C55 41.2975 44.7025 31 32 31C19.2975 31 9 41.2975 9 54C9 66.7025 19.2975 77 32 77Z" stroke="#A5B4FC" stroke-width="2"/>
<defs>
<linearGradient id="paint0_linear_0_1" x1="31" y1="0" x2="31" y2="70" gradientUnits="userSpaceOnUse">
<stop stop-color="white"/>
<stop offset="1" stop-color="white" stop-opacity="0"/>
</linearGradient>
</defs>
</svg>
